<?xml version="1.0" encoding="utf-8"?>
<!-- Generator: Adobe Illustrator 14.0.0, SVG Export Plug-In . SVG Version: 6.00 Build 43363)  -->
<!DOCTYPE svg PUBLIC "-//W3C//DTD SVG 1.1//EN" "http://www.w3.org/Graphics/SVG/1.1/DTD/svg11.dtd">
<svg version="1.1" id="Capa_1" xmlns="http://www.w3.org/2000/svg" xmlns:xlink="http://www.w3.org/1999/xlink" x="0px" y="0px"
	 width="595.28px" height="841.89px" viewBox="0 0 595.28 841.89" enable-background="new 0 0 595.28 841.89" xml:space="preserve">
<g>
	<g>
		<path fill-rule="evenodd" clip-rule="evenodd" fill="#FFFFFF" d="M248.061,264.043c-19.942-4.318-20.484-28.036-25.473-47.307
			c-4.494,26.337,6.758,52.671,23.653,63.682c0.587,15.182-2.403,33.941,5.458,41.848c-38.896,0.893-64.467-54.71-69.141-98.252
			c-4.099-38.188,0.204-89.139,20.015-107.35c1.819,0,3.639,0,5.458,0c20.323,18.026,37.449,57.963,43.667,94.614
			C254.596,228.352,257.303,249.786,248.061,264.043z"/>
		<path fill-rule="evenodd" clip-rule="evenodd" fill="#FFFFFF" d="M371.786,191.263c4.485-0.24,8.767-0.275,10.917,1.82
			c0.061,12.797-5.638,19.835-9.098,29.111c-3.076-2.609-1.435-15.886,3.639-16.375C374.93,201.463,370.601,199.12,371.786,191.263z
			"/>
		<path fill-rule="evenodd" clip-rule="evenodd" d="M339.035,200.361c2.816,7.116-11.69,12.529-10.917,23.653
			C319.393,215.784,332.082,204.278,339.035,200.361z"/>
		<path fill-rule="evenodd" clip-rule="evenodd" fill="#FFFFFF" d="M433.648,309.53c-3.773-3.925,3.82-19.445-1.819-25.473
			c-4.794-0.548-5.972,2.52-5.459,7.278c-4.674-13.775-3.318-32.7-3.639-54.584C449.76,243.3,443.67,289.561,433.648,309.53z"/>
		<path fill-rule="evenodd" clip-rule="evenodd" fill="#FFFFFF" d="M471.857,309.53c-5.154,0.304-7.582,3.334-12.736,3.639
			C456.437,301.261,471.372,299.573,471.857,309.53z"/>
		<path fill-rule="evenodd" clip-rule="evenodd" fill="#FFFFFF" d="M422.731,305.891
			C431.071,307.104,421.27,316.906,422.731,305.891L422.731,305.891z"/>
		<path fill-rule="evenodd" clip-rule="evenodd" fill="#FFFFFF" d="M286.27,316.808c-2.624,10.445-9.492,25.23-3.639,38.209
			c4.715-9.841-1.956-31.068,10.917-32.751c13.164,4.452,5.088,20.177,7.277,29.112c3.527,14.387,21.517,22.677,18.195,40.029
			c-3.762,3.516-4.08,10.476-10.917,10.917c-2.93,42.558-16.108,74.866-60.043,76.419c-0.05-1.77-2.227-1.412-3.639-1.82
			c-18.373-18.746-0.896-56.203-3.639-89.155c-1.87-22.461-13.242-47.104,14.556-50.946c-10.595,23.339,7.984,42.465,20.014,54.585
			c-10.052,20.309-38.559,29.692-32.75,60.043c3.483-30.481,29.494-38.434,38.209-63.682c-11.463-5.019-33.343-33.956-18.195-54.584
			c1.989,3.685-0.927,16.142,3.639,21.834C268.228,343.393,264.142,307.575,286.27,316.808z"/>
		<path fill-rule="evenodd" clip-rule="evenodd" d="M437.287,320.447c1.316,11.627-8.308,12.313-10.917,20.014
			c-7.611-3.305-15.938-5.896-21.834-10.917C403.912,315.328,426.603,317.625,437.287,320.447z M411.814,327.725
			c8.942,0.452,15.853-1.129,20.015-5.458C426.979,321.227,412.48,319.303,411.814,327.725z"/>
		<path fill-rule="evenodd" clip-rule="evenodd" fill="#FFFFFF" d="M431.829,322.267c-4.162,4.329-11.072,5.91-20.015,5.458
			C412.48,319.303,426.979,321.227,431.829,322.267z"/>
		<path fill-rule="evenodd" clip-rule="evenodd" d="M313.563,324.086c3.708-4.175,15.11-0.658,21.833-1.819
			C331.688,326.442,320.285,322.925,313.563,324.086z"/>
		<path fill-rule="evenodd" clip-rule="evenodd" fill="#FFFFFF" d="M359.049,373.212c14.602-6.08,28.101,4.627,25.474,21.834
			c-11.146,13.137-26.953-2.123-34.57-9.098c7.641,10.995,13.532,14.78,1.819,25.473c-6.543-7.406-7.932-19.967-9.098-32.75
			c5.818-7.105,20.726-2.992,25.473,1.819C368.408,374.77,363.48,374.24,359.049,373.212z"/>
		<path fill-rule="evenodd" clip-rule="evenodd" fill="#FFFFFF" d="M375.425,455.09c13.31-2.46,14.217-17.321,29.111-18.195
			c17.165,11.774,16.793,32.817,18.195,63.682c2.375,52.289-0.856,92.857-25.473,118.268c-9.896,10.215-40.035,33.206-65.502,23.653
			c-28.438-10.668-24.148-68.63-16.375-101.892c1.033-4.423,2.506-9.67,3.639-14.556c4.276-18.442,2.415-85.63,21.834-89.155
			C357.611,433.852,362.265,453.598,375.425,455.09z"/>
		<path fill-rule="evenodd" clip-rule="evenodd" fill="#FFFFFF" d="M510.067,640.678c4.245,0,8.49,0,12.736,0
			c4.693,4.834,4.695,18.432,1.819,25.473c5.236,3.019,8.355-11.777,5.458-18.195c9.562-4.15,22.644-0.853,29.112,3.64
			c6.111,15.89-9.872,20.327-27.293,18.194c-1.75,6.604,8.176,1.528,7.278,7.278c-4.715,29.854-5.313,63.827-36.39,67.321
			c-13.253-17.881,4.418-37.013,3.639-63.683C505.984,665.531,498.651,651.767,510.067,640.678z"/>
		<path fill-rule="evenodd" clip-rule="evenodd" fill="#FFFFFF" d="M38.819,63.899c181.343,0,362.686,0,544.028,0
			c0,246.846,0,493.686,0,740.533c-181.949,0-363.898,0-545.847,0c0-245.027,0-490.043,0-735.074
			C36.843,66.775,36.699,64.205,38.819,63.899z M477.316,307.71c1.475-9.966-8.116-8.865-7.278-18.195
			c10.903-7.898,25.001-12.602,36.39-20.014c-24.75,4.361-35.595,22.629-63.682,23.653c5.072-18.688-0.048-49.81-7.278-67.321
			c4.223-9.868,8.669-28.776,1.819-34.57c0.282,11.199,0.472,22.306-5.458,27.292c-4.387-14.415-0.351-37.252-9.098-47.307
			c-0.334,13.071,2.244,23.229,3.639,34.57c-4.99-5.927-15.128-6.706-25.473-7.278c-17.609-23.026-10.983-70.287-20.015-101.891
			c-30.695,5.088-35.906,35.66-43.667,63.682c-15.931,7.127-32.482,23.302-43.668,29.112c5.881-14.216,19.624-37.645,10.917-54.585
			c-3.942,30.628-16.193,52.948-34.57,69.141c-8-17.286-10.275-35.284-18.195-56.404c-5.838-15.57-17.89-41.709-32.75-43.668
			c-26.864-3.542-37.392,34.109-41.849,61.863c-13.127,81.746,15.513,156.246,78.238,165.574
			c-11.314,2.635-18.357,9.542-23.653,18.195c5.43,40.534,1.171,74.193,0,116.447c4.315,5.995,7.518,13.104,12.736,18.195
			c18.309,7.898,31.255-8.072,41.848-7.278c6.394,44.449-9.91,75.835-25.473,103.711c-30.637-10.426-56.477-26.518-83.697-41.848
			c-26.093-14.696-53.69-32.841-87.335-34.57c49.089,19.967,82.392,54.616,120.086,83.696c6.273,4.84,13.025,10.457,20.015,14.556
			c7.337,4.303,16.894,4.998,21.833,12.736c0.232,9.594-9.588,10.414-14.556,16.376c-6.041,7.249-10.201,18.499-14.556,27.292
			c-4.748,9.587-7.941,19.237-14.556,27.293c1.703-14.439-1.354-24.119-9.098-29.112c-17.923,0.285-15.928,6.463-32.751,1.819
			c-13.577,9.382-22.239,29.117-21.833,47.307c0.522,23.456,23.636,71.636,60.043,63.683
			c38.884-36.928,73.027-78.597,123.726-103.711c14.047,7.844,37.224,1.825,49.126-3.639c22.963,7.913,43.91,21.315,67.321,41.848
			c17.755,15.572,43.479,48.368,65.502,45.487c22.996-3.008,32.134-47.844,34.57-74.599c14.887-0.929,25.647-11.391,20.014-27.293
			c-7.599-6.155-22.086-9.559-34.57-5.458c-5.925-7.4-10.34-10.399-18.194-9.098c-14.425,2.391-9.651,23.055-18.195,30.932
			c-7.408-9.429-7.656-19.589-14.556-29.112c-16.366-22.589-47.247-31.254-52.766-61.862c-3.435-19.052,0.992-40.029,0-61.863
			c-0.796-17.531,1.433-35.56-1.819-54.584c13.729,20.098,59.368,29.565,67.321-1.819c4.667-38.631-16.107-51.821-25.473-76.419
			c9.85-16.503,22.709-44.331,12.736-69.141c18.49-6.376,41.68-8.053,63.683-10.917C521.677,295.498,495.963,302.384,477.316,307.71
			z M126.154,482.382c-8.018-1.129-15.539-12.293-23.653-7.278C110.635,476.117,119.75,485.687,126.154,482.382z M113.418,489.66
			c8.906-0.608-2.764-1.865-1.819-5.459c-19.259-4.404-36.227-12.564-56.404-7.278C75.291,477.315,96.529,481.342,113.418,489.66z"
			/>
		<path fill-rule="evenodd" clip-rule="evenodd" d="M542.818,298.613c-22.003,2.864-45.192,4.541-63.683,10.917
			c9.973,24.81-2.887,52.638-12.736,69.141c9.365,24.598,30.14,37.788,25.473,76.419c-7.953,31.385-53.593,21.917-67.321,1.819
			c3.252,19.024,1.023,37.053,1.819,54.584c0.992,21.834-3.435,42.812,0,61.863c5.519,30.608,36.399,39.273,52.766,61.862
			c6.899,9.523,7.147,19.684,14.556,29.112c8.544-7.877,3.771-28.541,18.195-30.932c7.854-1.302,12.27,1.697,18.194,9.098
			c12.484-4.101,26.972-0.697,34.57,5.458c5.634,15.902-5.127,26.364-20.014,27.293c-2.437,26.755-11.574,71.591-34.57,74.599
			c-22.023,2.881-47.747-29.915-65.502-45.487c-23.411-20.532-44.358-33.935-67.321-41.848
			c-11.902,5.464-35.079,11.482-49.126,3.639c-50.698,25.114-84.841,66.783-123.726,103.711
			c-36.407,7.953-59.521-40.227-60.043-63.683c-0.405-18.189,8.256-37.925,21.833-47.307c16.823,4.644,14.828-1.534,32.751-1.819
			c7.744,4.993,10.8,14.673,9.098,29.112c6.615-8.056,9.808-17.706,14.556-27.293c4.355-8.793,8.515-20.043,14.556-27.292
			c4.968-5.962,14.788-6.782,14.556-16.376c-4.939-7.738-14.497-8.434-21.833-12.736c-6.99-4.099-13.741-9.716-20.015-14.556
			c-37.695-29.08-70.998-63.729-120.086-83.696c33.646,1.729,61.242,19.874,87.335,34.57c27.22,15.33,53.06,31.422,83.697,41.848
			c15.563-27.876,31.867-59.262,25.473-103.711c-10.593-0.794-23.54,15.177-41.848,7.278c-5.219-5.092-8.421-12.2-12.736-18.195
			c1.171-42.254,5.43-75.913,0-116.447c5.296-8.653,12.339-15.56,23.653-18.195c-62.726-9.328-91.366-83.828-78.238-165.574
			c4.457-27.753,14.984-65.405,41.849-61.863c14.86,1.959,26.912,28.098,32.75,43.668c7.92,21.12,10.195,39.118,18.195,56.404
			c18.377-16.193,30.628-38.512,34.57-69.141c8.707,16.94-5.036,40.369-10.917,54.585c11.186-5.81,27.737-21.984,43.668-29.112
			c7.761-28.022,12.972-58.594,43.667-63.682c9.031,31.604,2.405,78.865,20.015,101.891c10.345,0.573,20.482,1.352,25.473,7.278
			c-1.395-11.342-3.973-21.5-3.639-34.57c8.747,10.054,4.711,32.892,9.098,47.307c5.93-4.987,5.74-16.094,5.458-27.292
			c6.85,5.794,2.403,24.703-1.819,34.57c7.23,17.511,12.351,48.633,7.278,67.321c28.087-1.024,38.932-19.292,63.682-23.653
			c-11.389,7.412-25.486,12.116-36.39,20.014c-0.838,9.33,8.753,8.229,7.278,18.195
			C495.963,302.384,521.677,295.498,542.818,298.613z M422.731,236.75c0.32,21.884-1.035,40.809,3.639,54.584
			c-0.513-4.758,0.665-7.826,5.459-7.278c5.64,6.028-1.954,21.548,1.819,25.473C443.67,289.561,449.76,243.3,422.731,236.75z
			 M346.313,156.693c1.536-1.707,9.382-6.104,10.917-1.819c-6.787,1.097-8.925,6.843-16.375,7.278
			c-1.368,10.761-4.918,19.342-10.917,25.473c17.012-1.888,45.913-4.719,60.043,1.82c-8.394-23.75-7.899-56.389-10.917-85.516
			C356.364,108.528,347.714,136.856,346.313,156.693z M231.685,260.404c6.425,8.738,15.336,14.989,25.473,20.015
			c-2.859,0.173-6.309-0.244-5.458,3.639c-1.146,18.735,2.298,32.879,7.278,45.487c10.009-4.546,8.373-20.739,21.833-21.834
			c7.614,3.303,12.603,9.231,20.014,12.737c7.608,9.374-0.557,34.521,10.917,40.029c2.688-7.884,0.332-17.738,0-20.015
			c13.201,9.439,48.318,11.207,50.946-9.097c-6.008-4.91-20.776-1.058-25.473-7.278c13.336-1.813,18.523,4.523,29.111,5.458
			c1.95-19.456-18.669-19-30.932-23.653c-5.962-2.262-10.327-5.166-16.375-7.278c-5.511-1.925-12.996-2.747-16.375-7.278
			c21.608,3.873,44.037,16.601,60.043,20.015c-2.708-5.838-14.655-11.957-12.736-16.375c8.531,4.812,15.979,10.707,18.194,21.834
			c6.993,2.219,12.311,0.896,20.015-3.639c-9.122-1.646-7.419-27.291,1.819-27.292c6.095,1.851,4.45,20.94,1.819,25.473
			c-1.914,0.1-1.432,2.332,1.819,1.819c2.815-31.401-0.267-72.452-29.111-78.238c-15.32,25.774,6.149,61.556,7.278,81.877
			c-8.88-22.068-21.399-48.094-14.557-80.058c8.958-5.867,12.844-25.606,10.917-36.39c-20.068-6.69-22.62,18.154-29.111,30.931
			c-2.548-13.748,5.294-32.099,18.194-36.39c6.716-3.314,12.529,8.29,12.736,0c-3.406-10.94-16.961-4.309-23.653-3.639
			c-20.282,2.029-44.061,11.574-56.404,14.556c2.904-8.654,16.151-16.554,16.375-21.834c-10.871,6.111-14.945,19.019-25.473,25.473
			c3.486-6.263,11.348-17.704,9.098-23.653c-3.356,11.2-12.527,16.585-16.375,27.292c4.313,7.848,15.76,18.162,16.375,23.653
			c-39.089-25.806-34.613-95.177-67.321-127.364c-8.61-0.12-17.909-0.927-20.014,5.458c5.907-1.055,8.464,1.239,12.736,1.819
			c26.838,35.631,44.026,80.912,41.848,145.56c-4.478,1.587-4.073,8.056-10.917,7.278
			C239.771,269.22,235.416,257.386,231.685,260.404z M419.093,314.989c8.32-20.982-6.233-70.923,5.458-101.892
			c-3.023-3.648-4.886-8.458-10.917-9.098c-4.012,5.085-1.899,16.296-5.458,21.834c-5.769-6.351,2.571-18.679-1.819-23.653
			c-7.625-2.167-3.248,7.669-7.278,9.098c3.185-13.496-7.211-13.41-12.736-18.195c-0.567,16.414-8.82,25.143-12.736,38.209
			c22.363,13.42,25.018,46.549,25.473,81.877c2.644,0.995,9.404-2.126,9.098,1.82c-8.867,3.263-23.716,0.543-29.112,7.278
			c2.346,2.043,13.532,4.469,9.098,7.278c-5.72-1.558-7.678-6.878-14.556-7.278c-0.023,3.615-4.965,2.313-3.64,7.278
			c3.111,5.987,13.998,4.197,16.376,10.917c-7.577-0.914-11.572-5.41-18.195-7.278c-2.464,20.018-32.555,21.216-50.945,14.556
			c-12.512,17.448,16.764,32.884,1.819,52.766c4.116,2.039,9.556,12.157,12.736,9.097c-2.967,0.318-3.673-11.903,1.819-9.097
			c1.984,16.81,9.457,27.663,21.834,29.111c14.443,1.691,25.474-15.539,38.209-10.917c-4.518-0.273-7.551,0.94-9.097,3.639
			c7.304-1.794,18.598,0.402,20.014-7.278c-15.506-11.122-32.521,4.112-45.487,7.278c-17.486-7.928-23.366-35.314-18.194-60.043
			c5.747-2.137,7.851-7.918,12.736-10.917c28.89-4.835,51.769,22.368,69.141-5.458c0,1.819,0,3.639,0,5.458
			c20.622,0.431,30.217-25.876,21.834-38.209c-0.393,9.527-2.44-1.987-1.819-1.819c-6.268-1.693-14.289,4.575-21.834,5.458
			C422.947,313.027,422.874,312.953,419.093,314.989z M333.576,165.791c-7.065,5.983-17.364,15.317-23.653,16.375
			c3.717,5.034-14.401,13.392-10.917,18.195C314.091,193.601,336.941,184.939,333.576,165.791z M251.699,211.278
			c-6.218-36.651-23.345-76.588-43.667-94.614c-1.82,0-3.639,0-5.458,0c-19.811,18.211-24.113,69.162-20.015,107.35
			c4.673,43.542,30.244,99.145,69.141,98.252c-7.861-7.907-4.871-26.667-5.458-41.848c-16.895-11.011-28.147-37.345-23.653-63.682
			c4.989,19.271,5.531,42.989,25.473,47.307C257.303,249.786,254.596,228.352,251.699,211.278z M377.244,205.819
			c-5.073,0.489-6.715,13.766-3.639,16.375c3.46-9.276,9.158-16.314,9.098-29.111c-2.15-2.095-6.432-2.06-10.917-1.82
			C370.601,199.12,374.93,201.463,377.244,205.819z M435.468,234.931c-3.005-0.028-1.018-5.047-3.639-5.458
			C430.27,233.184,434.692,239.498,435.468,234.931z M453.663,302.252c0.005-3.806,9.911-6.838,5.458-9.097
			C457.207,295.051,449.445,300.228,453.663,302.252z M440.927,304.072c-0.58-4.826,10.192,1.702,7.277-5.458
			C443.38,297.031,437.163,303.057,440.927,304.072z M459.121,313.169c5.154-0.304,7.582-3.334,12.736-3.639
			C471.372,299.573,456.437,301.261,459.121,313.169z M422.731,305.891C421.27,316.906,431.071,307.104,422.731,305.891
			L422.731,305.891z M453.663,316.808c-0.24-4.485-0.275-8.767,1.819-10.917c-6.895,6.382-8.194-3.704-12.736,3.639
			C451.978,306.363,446.979,317.427,453.663,316.808z M453.663,340.461c-4.932,9.202,4.498-5.141,7.277,1.819
			c-12.538,6.869-22.01,16.806-23.653,34.57c-8.541-6.372,3.643-16.397,0-21.833c-4.979,7.757-13.215,12.257-18.194,20.014
			c3.5,6.81,11.009,9.612,16.375,14.556c-3.836,20.232,4.677,53.526,12.736,61.862c-27.891-7.286-3.587-66.767-34.57-70.96
			c-4.64,5.064-8.418,10.989-10.917,18.195c4.943,2.335,5.237,9.319,10.917,10.917c2.699-5.792,0.012-16.971,3.64-21.834
			c-1.772,24.043,2.013,36.87,5.458,61.863c13.667,7.961,23.867,24.326,43.668,21.834c41.033-5.165,10.199-71.507-3.639-89.155
			c-2.718,2.135-2.144,7.561-7.278,7.278c11.298-20.607,27.915-44.362,20.015-78.238c-7.636,0.25-12.451,3.318-16.376,7.278
			c4.164,3.114,0.667,13.889,1.819,20.015C457.23,334.987,457.373,339.446,453.663,340.461z M266.255,355.018
			c-4.566-5.692-1.65-18.149-3.639-21.834c-15.148,20.628,6.732,49.565,18.195,54.584c-8.715,25.249-34.726,33.201-38.209,63.682
			c-5.808-30.351,22.698-39.734,32.75-60.043c-12.03-12.12-30.609-31.246-20.014-54.585c-27.798,3.842-16.426,28.485-14.556,50.946
			c2.743,32.952-14.733,70.409,3.639,89.155c1.412,0.408,3.589,0.051,3.639,1.82c43.935-1.553,57.113-33.861,60.043-76.419
			c6.837-0.441,7.155-7.401,10.917-10.917c3.321-17.352-14.668-25.642-18.195-40.029c-2.189-8.935,5.887-24.66-7.277-29.112
			c-12.873,1.683-6.202,22.91-10.917,32.751c-5.854-12.979,1.015-27.765,3.639-38.209
			C264.142,307.575,268.228,343.393,266.255,355.018z M448.204,338.642c-4.293,8.371-16.118,10.981-14.556,18.195
			c7.124-11.086,27.902-18.17,20.015-38.209C449.142,324.261,451.416,332.381,448.204,338.642z M391.8,405.963
			c6.221-5.012,9.201-15.186,12.736-20.014c8.632-11.787,22.79-21.096,23.653-32.751C407.982,362.709,396.441,380.887,391.8,405.963
			z M368.146,380.49c-4.747-4.811-19.654-8.925-25.473-1.819c1.166,12.784,2.555,25.345,9.098,32.75
			c11.713-10.692,5.821-14.478-1.819-25.473c7.617,6.975,23.425,22.234,34.57,9.098c2.627-17.207-10.872-27.914-25.474-21.834
			C363.48,374.24,368.408,374.77,368.146,380.49z M328.118,646.136c-18.354-18.261-24.771-37.886-23.653-65.502
			c1.001-24.766,13.047-49.695,14.556-72.779c1.751-26.779,0.809-70.523,20.015-74.599c16.82-3.57,25.468,17.327,38.209,16.375
			c7.282-0.544,13.239-16.245,23.653-16.375c9.432-0.118,9.477,6.158,16.376,10.917c-0.54-18.293-9.028-39.577-18.195-40.029
			c1.466,6.418,9.586,6.183,9.098,14.556c-1.979,7.726-14.283,5.125-23.653,5.458c-11.646,3.492-16.769,11.641-27.293,10.917
			c-16.932-1.165-30.045-26.418-43.667-32.751c-4.09,8.091-0.641,12.789-1.82,20.015c-2.991,18.321-19.653,34.209-21.833,47.307
			c-0.69,4.146,1.527,9.168,1.819,12.736c4.396,53.733-24.2,85.916-34.57,131.003c2.318,5.106,10.419-8.745,12.737-3.639
			c-16.024,10.688-29.555,26.998-40.029,45.487c-4.789,8.452-7.068,18.021-10.917,25.473c-3.841,7.438-11.856,13.568-12.737,20.015
			c-1.215,8.9,6.282,18.514,3.639,27.292c-4.342-9.607-5.348-22.551-9.098-32.751c-12.733,21.382-0.473,50.958-5.458,70.961
			c9.069-3.394,16.965-9.688,23.653-16.376c35.845-35.846,69.181-73.666,121.906-92.794c-2.046,3.413-7.052,3.865-9.098,7.278
			c33.476,2.544,52.352-9.512,74.6-18.195c-4.249,9.095-19.075,7.61-23.653,16.376c51.536,12.146,74.168,53.195,112.808,78.237
			c-4.623-22.857,12.663-43.833,5.459-72.779c-11.767,7.642-15.175,23.642-20.015,38.209c3.031-27.902,13.931-35.56,0-58.224
			c-1.482-2.411-6.667-4.03-9.098-7.277c-2.979-3.98-3.616-8.892-5.458-10.917c-14.563-16.014-37.799-27.614-41.849-50.946
			C413.524,621.393,381.836,652.23,328.118,646.136z M506.428,680.706c0.779,26.67-16.892,45.802-3.639,63.683
			c31.076-3.494,31.675-37.467,36.39-67.321c0.897-5.75-9.028-0.675-7.278-7.278c17.421,2.133,33.404-2.305,27.293-18.194
			c-6.469-4.492-19.551-7.79-29.112-3.64c2.897,6.418-0.222,21.214-5.458,18.195c2.876-7.041,2.874-20.639-1.819-25.473
			c-4.246,0-8.491,0-12.736,0C498.651,651.767,505.984,665.531,506.428,680.706z M340.854,436.895
			c-19.419,3.525-17.558,70.713-21.834,89.155c-1.133,4.886-2.605,10.133-3.639,14.556c-7.773,33.262-12.063,91.224,16.375,101.892
			c25.467,9.553,55.605-13.438,65.502-23.653c24.616-25.41,27.848-65.979,25.473-118.268c-1.402-30.864-1.03-51.907-18.195-63.682
			c-14.895,0.874-15.802,15.735-29.111,18.195C362.265,453.598,357.611,433.852,340.854,436.895z M251.699,604.287
			c2.506-5.985,4.772-12.209,7.278-18.194c-48.758-16.746-87.496-53.209-132.823-67.321
			C171,544.279,200.676,584.957,251.699,604.287z M169.822,662.512c-12.248,9.431-20.802,26.986-20.014,45.486
			c1.074,25.233,22.178,56.978,43.667,54.585c0.834-19.001-3.931-33.44-1.819-49.126c2.056-15.269,13.702-28.417,10.917-45.487
			c-4.234-4.058-13.692-4.903-20.015-1.819c-2.204,6.894-3.521,14.674-7.278,20.015c-2.464-9.98,4.953-16.922,1.819-21.834
			C173.66,664.738,173.086,662.28,169.822,662.512z"/>
		<path fill-rule="evenodd" clip-rule="evenodd" fill="#FFFFFF" d="M246.241,269.501c6.844,0.778,6.439-5.691,10.917-7.278
			c2.178-64.647-15.01-109.928-41.848-145.56c-4.272-0.58-6.83-2.874-12.736-1.819c2.105-6.386,11.404-5.578,20.014-5.458
			c32.708,32.187,28.232,101.559,67.321,127.364c-0.615-5.492-12.062-15.806-16.375-23.653c3.849-10.708,13.02-16.093,16.375-27.292
			c2.25,5.949-5.612,17.391-9.098,23.653c10.528-6.454,14.603-19.361,25.473-25.473c-0.225,5.28-13.472,13.18-16.375,21.834
			c12.343-2.982,36.122-12.527,56.404-14.556c6.692-0.669,20.247-7.301,23.653,3.639c-0.207,8.29-6.021-3.314-12.736,0
			c-12.9,4.291-20.742,22.642-18.194,36.39c6.491-12.777,9.043-37.621,29.111-30.931c1.927,10.784-1.959,30.522-10.917,36.39
			c-6.843,31.963,5.677,57.99,14.557,80.058c-1.129-20.321-22.599-56.103-7.278-81.877c28.845,5.786,31.927,46.836,29.111,78.238
			c-3.251,0.513-3.733-1.72-1.819-1.819c2.631-4.533,4.275-23.622-1.819-25.473c-9.238,0.001-10.941,25.646-1.819,27.292
			c-7.704,4.536-13.021,5.858-20.015,3.639c-2.215-11.127-9.663-17.022-18.194-21.834c-1.919,4.418,10.028,10.538,12.736,16.375
			c-16.006-3.414-38.435-16.142-60.043-20.015c3.379,4.532,10.864,5.354,16.375,7.278c6.048,2.112,10.413,5.016,16.375,7.278
			c12.263,4.653,32.882,4.198,30.932,23.653c-10.588-0.936-15.775-7.271-29.111-5.458c4.696,6.22,19.465,2.368,25.473,7.278
			c-2.628,20.304-37.745,18.537-50.946,9.097c0.332,2.277,2.688,12.131,0,20.015c-11.474-5.508-3.309-30.655-10.917-40.029
			c-7.411-3.506-12.4-9.434-20.014-12.737c-13.46,1.095-11.824,17.288-21.833,21.834c-4.98-12.608-8.424-26.752-7.278-45.487
			c-0.85-3.882,2.6-3.465,5.458-3.639c-10.137-5.025-19.048-11.277-25.473-20.015C235.416,257.386,239.771,269.22,246.241,269.501z
			 M328.118,224.014c-0.773-11.124,13.733-16.537,10.917-23.653C332.082,204.278,319.393,215.784,328.118,224.014z M335.396,322.267
			c-6.723,1.161-18.125-2.356-21.833,1.819C320.285,322.925,331.688,326.442,335.396,322.267z"/>
		<path fill-rule="evenodd" clip-rule="evenodd" fill="#FFFFFF" d="M420.912,316.808c7.545-0.884,15.566-7.151,21.834-5.458
			c-0.621-0.168,1.427,11.347,1.819,1.819c8.383,12.333-1.212,38.64-21.834,38.209c0-1.819,0-3.639,0-5.458
			c-17.372,27.827-40.251,0.623-69.141,5.458c-4.886,2.999-6.989,8.78-12.736,10.917c-5.172,24.729,0.708,52.115,18.194,60.043
			c12.966-3.166,29.981-18.4,45.487-7.278c-1.416,7.681-12.71,5.484-20.014,7.278c1.546-2.699,4.579-3.912,9.097-3.639
			c-12.735-4.623-23.766,12.608-38.209,10.917c-12.377-1.448-19.85-12.301-21.834-29.111c-5.492-2.806-4.786,9.415-1.819,9.097
			c-3.181,3.06-8.62-7.058-12.736-9.097c14.944-19.881-14.331-35.318-1.819-52.766c18.391,6.66,48.481,5.462,50.945-14.556
			c6.623,1.868,10.618,6.364,18.195,7.278c-2.378-6.72-13.265-4.93-16.376-10.917c-1.325-4.964,3.616-3.663,3.64-7.278
			c6.878,0.4,8.836,5.72,14.556,7.278c4.435-2.809-6.752-5.235-9.098-7.278c5.396-6.734,20.245-4.015,29.112-7.278
			c0.307-3.946-6.454-0.825-9.098-1.82c-0.455-35.328-3.109-68.457-25.473-81.877c3.916-13.066,12.169-21.795,12.736-38.209
			c5.525,4.785,15.921,4.699,12.736,18.195c4.03-1.429-0.347-11.264,7.278-9.098c4.391,4.974-3.949,17.302,1.819,23.653
			c3.559-5.538,1.446-16.749,5.458-21.834c6.031,0.64,7.894,5.45,10.917,9.098c-11.691,30.968,2.862,80.91-5.458,101.892
			C422.874,312.953,422.947,313.027,420.912,316.808z M404.536,329.544c5.896,5.021,14.223,7.612,21.834,10.917
			c2.609-7.701,12.233-8.387,10.917-20.014C426.603,317.625,403.912,315.328,404.536,329.544z"/>
		<path fill-rule="evenodd" clip-rule="evenodd" fill="#FFFFFF" d="M299.006,200.361c-3.484-4.803,14.634-13.161,10.917-18.195
			c6.289-1.059,16.588-10.392,23.653-16.375C336.941,184.939,314.091,193.601,299.006,200.361z"/>
		<path fill-rule="evenodd" clip-rule="evenodd" fill="#FFFFFF" d="M431.829,229.473c2.621,0.412,0.634,5.431,3.639,5.458
			C434.692,239.498,430.27,233.184,431.829,229.473z"/>
		<path fill-rule="evenodd" clip-rule="evenodd" fill="#FFFFFF" d="M459.121,293.155c4.453,2.259-5.453,5.292-5.458,9.097
			C449.445,300.228,457.207,295.051,459.121,293.155z"/>
		<path fill-rule="evenodd" clip-rule="evenodd" fill="#FFFFFF" d="M448.204,298.613c2.915,7.16-7.857,0.633-7.277,5.458
			C437.163,303.057,443.38,297.031,448.204,298.613z"/>
		<path fill-rule="evenodd" clip-rule="evenodd" fill="#FFFFFF" d="M442.746,309.53c4.542-7.343,5.842,2.743,12.736-3.639
			c-2.095,2.15-2.06,6.432-1.819,10.917C446.979,317.427,451.978,306.363,442.746,309.53z"/>
		<path fill-rule="evenodd" clip-rule="evenodd" fill="#FFFFFF" d="M460.94,338.642c-1.152-6.126,2.345-16.9-1.819-20.015
			c3.925-3.959,8.74-7.028,16.376-7.278c7.9,33.876-8.717,57.631-20.015,78.238c5.135,0.283,4.561-5.144,7.278-7.278
			c13.838,17.648,44.672,83.99,3.639,89.155c-19.801,2.492-30.001-13.873-43.668-21.834c-3.445-24.993-7.23-37.82-5.458-61.863
			c-3.628,4.863-0.94,16.042-3.64,21.834c-5.68-1.598-5.974-8.582-10.917-10.917c2.499-7.206,6.277-13.13,10.917-18.195
			c30.983,4.193,6.68,63.674,34.57,70.96c-8.06-8.336-16.572-41.63-12.736-61.862c-5.366-4.944-12.875-7.746-16.375-14.556
			c4.979-7.757,13.215-12.257,18.194-20.014c3.643,5.436-8.541,15.461,0,21.833c1.644-17.764,11.115-27.701,23.653-34.57
			c-2.779-6.96-12.209,7.383-7.277-1.819C457.373,339.446,457.23,334.987,460.94,338.642z"/>
		<path fill-rule="evenodd" clip-rule="evenodd" fill="#FFFFFF" d="M453.663,318.627c7.888,20.039-12.891,27.123-20.015,38.209
			c-1.563-7.213,10.263-9.824,14.556-18.195C451.416,332.381,449.142,324.261,453.663,318.627z"/>
		<path fill-rule="evenodd" clip-rule="evenodd" fill="#FFFFFF" d="M428.189,353.198c-0.863,11.655-15.021,20.964-23.653,32.751
			c-3.535,4.828-6.516,15.002-12.736,20.014C396.441,380.887,407.982,362.709,428.189,353.198z"/>
		<path fill-rule="evenodd" clip-rule="evenodd" fill="#FFFFFF" d="M424.551,578.814c4.05,23.332,27.286,34.933,41.849,50.946
			c1.842,2.025,2.479,6.937,5.458,10.917c2.431,3.247,7.615,4.866,9.098,7.277c13.931,22.664,3.031,30.321,0,58.224
			c4.84-14.567,8.248-30.567,20.015-38.209c7.204,28.946-10.082,49.922-5.459,72.779c-38.64-25.042-61.271-66.092-112.808-78.237
			c4.578-8.766,19.404-7.281,23.653-16.376c-22.248,8.684-41.124,20.739-74.6,18.195c2.046-3.413,7.052-3.865,9.098-7.278
			c-52.725,19.128-86.061,56.948-121.906,92.794c-6.688,6.688-14.584,12.982-23.653,16.376c4.985-20.003-7.275-49.579,5.458-70.961
			c3.75,10.2,4.756,23.144,9.098,32.751c2.643-8.778-4.854-18.392-3.639-27.292c0.881-6.446,8.896-12.577,12.737-20.015
			c3.849-7.452,6.128-17.021,10.917-25.473c10.474-18.489,24.005-34.799,40.029-45.487c-2.318-5.106-10.419,8.745-12.737,3.639
			c10.37-45.087,38.967-77.27,34.57-131.003c-0.292-3.568-2.51-8.59-1.819-12.736c2.18-13.098,18.842-28.985,21.833-47.307
			c1.18-7.226-2.27-11.924,1.82-20.015c13.622,6.333,26.735,31.586,43.667,32.751c10.524,0.724,15.647-7.425,27.293-10.917
			c9.37-0.334,21.675,2.268,23.653-5.458c0.488-8.373-7.632-8.138-9.098-14.556c9.167,0.452,17.655,21.736,18.195,40.029
			c-6.899-4.759-6.944-11.035-16.376-10.917c-10.414,0.13-16.371,15.831-23.653,16.375c-12.741,0.952-21.389-19.945-38.209-16.375
			c-19.206,4.075-18.264,47.819-20.015,74.599c-1.509,23.084-13.555,48.014-14.556,72.779c-1.117,27.616,5.3,47.241,23.653,65.502
			C381.836,652.23,413.524,621.393,424.551,578.814z"/>
		<path fill-rule="evenodd" clip-rule="evenodd" d="M102.501,475.104c8.114-5.015,15.635,6.149,23.653,7.278
			C119.75,485.687,110.635,476.117,102.501,475.104z"/>
		<path fill-rule="evenodd" clip-rule="evenodd" d="M55.194,476.923c20.178-5.286,37.146,2.874,56.404,7.278
			c-0.944,3.594,10.726,4.851,1.819,5.459C96.529,481.342,75.291,477.315,55.194,476.923z"/>
		<path fill-rule="evenodd" clip-rule="evenodd" fill="#FFFFFF" d="M126.154,518.771c45.327,14.112,84.065,50.575,132.823,67.321
			c-2.506,5.985-4.772,12.209-7.278,18.194C200.676,584.957,171,544.279,126.154,518.771z"/>
		<path fill-rule="evenodd" clip-rule="evenodd" fill="#FFFFFF" d="M379.063,103.928c3.018,29.127,2.523,61.766,10.917,85.516
			c-14.13-6.539-43.031-3.708-60.043-1.82c5.999-6.13,9.549-14.711,10.917-25.473c7.45-0.435,9.588-6.181,16.375-7.278
			c-1.535-4.285-9.381,0.113-10.917,1.819C347.714,136.856,356.364,108.528,379.063,103.928z"/>
		<path fill-rule="evenodd" clip-rule="evenodd" fill="#FFFFFF" d="M177.1,664.331c3.133,4.912-4.284,11.854-1.819,21.834
			c3.757-5.341,5.074-13.121,7.278-20.015c6.323-3.084,15.781-2.238,20.015,1.819c2.785,17.07-8.861,30.219-10.917,45.487
			c-2.112,15.686,2.653,30.125,1.819,49.126c-21.489,2.393-42.593-29.352-43.667-54.585c-0.788-18.5,7.767-36.056,20.014-45.486
			C173.086,662.28,173.66,664.738,177.1,664.331z"/>
	</g>
</g>
</svg>
